<svg id="Capa_1" data-name="Capa 1" xmlns="http://www.w3.org/2000/svg" viewBox="0 0 500 500"><defs><style>.cls-1,.cls-3{fill:#57c7e7;}.cls-2{fill:#4d4d4d;}.cls-3{font-size:250px;font-family:FinalTestament-Bold, Final Testament;font-weight:700;}</style></defs><title>LOGO-CLEMesa de trabajo 1</title><circle class="cls-1" cx="247.63" cy="254.06" r="231.5"/><path class="cls-2" d="M153.29,256.77V127.68H78.15a211.09,211.09,0,0,0,.13,253Q153.28,340.88,153.29,256.77Z"/><path class="cls-2" d="M374.33,283C303.21,287.12,251.58,327,218.51,402.62L175,428.44,321.78,56.56l74.29,190.7c5.43-.45,9.51-.91,12.68-.91a86,86,0,0,1,37.6,8.61l-10.42,30.8a81.28,81.28,0,0,0-25.37-4.53c-.45,0-.9.45-1.36.45l27.68,66.74a210.15,210.15,0,0,0,22.25-94.36c0-116.62-94.88-211.5-211.5-211.5a210.5,210.5,0,0,0-134,48h75.42V255.87c0,70.81-28.54,121.82-85.84,152.57a211.19,211.19,0,0,0,311.1-24.35Z"/><path class="cls-2" d="M268.33,282.59c24.46-17.67,54.81-29,91.5-33.52l-39.41-96.48Z"/><text class="cls-3" transform="translate(138.6 -55.87)">JA</text></svg>